<svg width="138" height="73" enable-background="new 0 0 140 73.2" viewBox="0 0 140 73.2" xmlns="http://www.w3.org/2000/svg"><g clip-rule="evenodd" fill-rule="evenodd"><path d="m70.6 17.5h-14.5v23.7h14.5v-4.6h-8.7v-5.2h7.7v-4.5h-7.7v-4.8h8.7zm2.8 11.8c0 7.1 4.9 12 11.9 12 5.6 0 9.9-3.1 11.2-8.3h-6.3c-1 2-2.8 3-5 3-3.5 0-6-2.6-6-6.8s2.4-6.8 6-6.8c2.2 0 4 1 5 3h6.3c-1.3-5.1-5.6-8.3-11.2-8.3-7 .2-11.9 5.1-11.9 12.2zm50 0c0-7.1-5.4-12.1-12.1-12.1s-12.2 5-12.2 12.1 5.5 12.2 12.2 12.2 12.1-5.1 12.1-12.2zm-18.4 0c0-4.2 2.4-6.9 6.3-6.9 3.8 0 6.2 2.7 6.2 6.9s-2.5 6.9-6.2 6.9c-3.8 0-6.3-2.7-6.3-6.9z" fill="#5eb148"/><path d="m15.2 72.8h3.8v-23.4h-3.8v10.1h-11v-10.1h-3.9v23.5h3.8v-10.3h11c.1 0 .1 10.2.1 10.2zm7.6-9.4c0 5.7 3.9 9.7 8.7 9.7 3.1 0 5.3-1.5 6.5-3.1v2.8h3.9v-18.6h-3.9v2.7c-1.1-1.5-3.3-3-6.4-3-4.9 0-8.8 3.8-8.8 9.5zm15.2.1c0 4-2.7 6.3-5.6 6.3s-5.6-2.3-5.6-6.3 2.8-6.2 5.6-6.2c2.9 0 5.6 2.2 5.6 6.2zm12.8-6.5v-9.1h-3.8v25h3.8v-2.7c1.2 1.6 3.4 3 6.5 3 4.9 0 8.7-3.9 8.7-9.7s-3.8-9.5-8.7-9.5c-2.9-.1-5.3 1.3-6.5 3zm11.3 6.4c0 4-2.8 6.3-5.7 6.3s-5.6-2.3-5.6-6.3 2.8-6.2 5.6-6.2c2.9.1 5.7 2.2 5.7 6.2zm7.8 9.4h3.8v-18.6h-3.8zm1.9-21c1.4 0 2.5-1.1 2.5-2.5s-1.1-2.5-2.5-2.5-2.5 1.1-2.5 2.5c0 1.3 1.1 2.4 2.5 2.5zm7.6 15.9c0 3.8 2.1 5.2 5.4 5.2h3v-3.2h-2.4c-1.6 0-2.2-.6-2.2-2v-10.3h4.5v-3.1h-4.5v-4.6h-3.9v4.6h-2.2v3.1h2.2zm10.6-4.3c0 5.7 3.9 9.7 8.7 9.7 3.1 0 5.3-1.5 6.5-3.1v2.8h3.9v-18.6h-3.9v2.7c-1.1-1.5-3.3-3-6.4-3-4.9 0-8.8 3.8-8.8 9.5zm15.3.1c0 4-2.7 6.3-5.6 6.3s-5.6-2.3-5.6-6.3 2.8-6.2 5.6-6.2 5.6 2.2 5.6 6.2zm9.5 4.2c0 3.8 2.1 5.2 5.4 5.2h3v-3.2h-2.4c-1.6 0-2.2-.6-2.2-2v-10.3h4.5v-3.1h-4.5v-4.6h-3.9v4.6h-2.2v3.1h2.2v10.3z" fill="#4c4c4c"/><g fill="#5eb148"><path d="m17.1 41h3v-7c0-3.3-2-5.1-4.9-5.1-1.8 0-3.3.9-4.1 2.3-.8-1.5-2.4-2.3-4.2-2.3-1.5 0-2.8.6-3.5 1.6v-1.5h-3v12h3v-6.6c0-1.9 1.1-2.9 2.7-2.9s2.7 1 2.7 2.9v6.6h3v-6.6c0-1.9 1.1-2.9 2.7-2.9s2.7 1 2.7 2.9c-.1-.1-.1 6.6-.1 6.6zm17.5-6c0-3.8-2.7-6.2-6.2-6.2s-6.2 2.4-6.2 6.2 2.6 6.2 6.1 6.2 6.3-2.5 6.3-6.2zm-9.3 0c0-2.4 1.5-3.6 3.1-3.6s3.1 1.1 3.1 3.6c0 2.4-1.5 3.6-3.1 3.6-1.7-.1-3.1-1.3-3.1-3.6zm19.9 6h3v-7c0-3.3-2-5.1-4.8-5.1-1.5 0-2.8.7-3.6 1.7v-1.6h-3v12h3v-6.6c0-1.9 1.1-3 2.7-3s2.7 1 2.7 3z"/><path d="m119 17.1s-4.4-9.8 5.3-17.1c0 0 7.8 11.2-3.2 17.5 0 0 .3-5.3 1-7.9 0 .1-2.3 3.7-3.1 7.5zm3.1 1s7.4-7.8 17.8-1.4c0 0-7.4 11.4-17.4 3.6 0 0 5-1.7 7.6-2.1.1 0-4.1-.8-8-.1z"/></g></g></svg>