<svg xmlns="http://www.w3.org/2000/svg" width="316" height="69.764" viewBox="0 0 316 69.764">
  <g id="layer1" transform="translate(-191.313 -523.916)">
    <path id="path4927" d="M459.359,540.867c-4.126-.65-7.835-2.222-9.754-4.133-4.332-4.313-5.318-12.217-2.779-22.277,1.422-5.635,3.334-8.39,7.9-11.372a30.277,30.277,0,0,1,15.411-5.316c8.134-.532,16.719,2.708,20.785,7.844A42.948,42.948,0,0,1,495.156,512a21.215,21.215,0,0,1,.979,6.877,20.39,20.39,0,0,1-5.823,13.661c-3.526,3.269-10.245,6.337-16.962,7.746a34.819,34.819,0,0,1-7.782.715A58.146,58.146,0,0,1,459.359,540.867Z" transform="translate(-246.433 52.665)" fill="#58b1ab"/>
    <path id="path4917" d="M462.415,503.368c-.266-.266.084-1.83.807-3.607.835-2.054,5.3-3.5,8.3-2.693,2.255.607,5.1,3.034,5.1,4.349,0,.962-.018.96-1.007-.1a8.58,8.58,0,0,0-5.347-2.387c-1.64,0-3.874,1.181-5.9,3.117-.921.882-1.8,1.477-1.955,1.323Zm21.258-2.354c0-1.986,3.679-4.436,6.671-4.436,2.526,0,5.548,2.408,5.548,4.42,0,.544-.667.32-2.7-.908-3.708-2.236-6.257-2.05-8.458.615C483.764,501.877,483.675,501.9,483.673,501.014Zm24.9-3.769c-2.415-1.576-23.049-22.021-30.916-30.631-1.948-2.133-3.778-3.878-4.066-3.878a22.325,22.325,0,0,0-4.037,3.568c-2.973,3.019-13.842,12.732-26.678,23.842-4.692,4.061-8.082,6.6-8.394,6.289-.152-.152.158-.975.689-1.829,1.519-2.444,24.79-25.26,29.224-28.654,5.375-4.113,8.26-6.036,9.057-6.036.738,0,4.431,3.367,27.323,24.912,6.368,5.993,11.787,12.37,11.39,13.4C511.79,499.221,511.468,499.133,508.576,497.245Z" transform="translate(-243.134 64)"/>
    <g id="text5029" transform="translate(283.67 574.869)">
      <path id="path5076" d="M306.185,623.076h1.693l2.512,7.262,2.512-7.262h1.693v9.337h-1.256V625.26l-2.512,7.153h-.874l-2.512-7.153v7.153h-1.256Z" transform="translate(-306.185 -623.076)" fill="#1a1a1a"/>
      <path id="path5078" d="M322.626,623.163h1.092v1.42h-1.092Zm0,3.167h1.092v6.115h-1.092Z" transform="translate(-312.307 -623.108)" fill="#1a1a1a"/>
      <path id="path5080" d="M326.889,631.2a3.251,3.251,0,0,1,.928-2.4,2.837,2.837,0,0,1,3.931.055,3.2,3.2,0,0,1,.764,2.348H328.09a2.308,2.308,0,0,0,.546,1.693,1.7,1.7,0,0,0,1.256.491,1.507,1.507,0,0,0,1.092-.328,1.2,1.2,0,0,0,.382-.874h1.2a2.945,2.945,0,0,1-.71,1.474,2.657,2.657,0,0,1-1.966.71,2.88,2.88,0,0,1-2.129-.819A3.173,3.173,0,0,1,326.889,631.2Zm2.839-2.239a1.482,1.482,0,0,0-1.092.437,1.774,1.774,0,0,0-.491.928h3.112a1.358,1.358,0,0,0-.437-.983A1.477,1.477,0,0,0,329.728,628.962Z" transform="translate(-313.894 -624.922)" fill="#1a1a1a"/>
      <path id="path5082" d="M338.285,628.208h1.092v4.1a1.335,1.335,0,0,0,.328.983,1.033,1.033,0,0,0,.764.273,1.726,1.726,0,0,0,1.256-.546,2.4,2.4,0,0,0,.819-1.693v-3.112h1.092v6.115h-1.092v-1.092a2.57,2.57,0,0,1-2.129,1.2,2.261,2.261,0,0,1-1.638-.491,1.7,1.7,0,0,1-.491-1.256Z" transform="translate(-318.137 -624.987)" fill="#1a1a1a"/>
      <path id="path5084" d="M348.8,628.208h1.256l1.474,2.184L353,628.208h1.256l-2.075,3,2.239,3.112h-1.256l-1.638-2.293-1.638,2.293h-1.256l2.239-3.112Z" transform="translate(-321.992 -624.987)" fill="#1a1a1a"/>
      <path id="path5086" d="M366.209,631.288a3.173,3.173,0,0,1,.874-2.348,2.745,2.745,0,0,1,2.02-.819,2.67,2.67,0,0,1,1.966.655,2.454,2.454,0,0,1,.71,1.474h-1.2a1.4,1.4,0,0,0-.437-.819,1.335,1.335,0,0,0-.983-.328,1.482,1.482,0,0,0-1.092.437,2.435,2.435,0,0,0-.655,1.8,2.289,2.289,0,0,0,.6,1.693,1.482,1.482,0,0,0,1.092.437,1.624,1.624,0,0,0,1.2-.437,1.551,1.551,0,0,0,.437-1.147h1.2a2.7,2.7,0,0,1-.764,1.856,2.812,2.812,0,0,1-2.075.71,2.593,2.593,0,0,1-1.911-.765,3.268,3.268,0,0,1-.983-2.4Z" transform="translate(-328.534 -624.954)" fill="#1a1a1a"/>
      <path id="path5088" d="M377.6,623.076H378.7v4.313a2.592,2.592,0,0,1,2.02-1.2,2.307,2.307,0,0,1,1.693.546,1.787,1.787,0,0,1,.546,1.31v4.368h-1.092v-4.1a1.33,1.33,0,0,0-.382-.983,1.033,1.033,0,0,0-.764-.273,1.514,1.514,0,0,0-1.092.491,3.954,3.954,0,0,0-.928,1.693v3.167H377.6Z" transform="translate(-332.778 -623.076)" fill="#1a1a1a"/>
      <path id="path5090" d="M388.479,631.2a3.251,3.251,0,0,1,.928-2.4,2.837,2.837,0,0,1,3.931.055,3.2,3.2,0,0,1,.764,2.348H389.68a2.308,2.308,0,0,0,.546,1.693,1.7,1.7,0,0,0,1.256.491,1.507,1.507,0,0,0,1.092-.328,1.2,1.2,0,0,0,.382-.874h1.2a2.945,2.945,0,0,1-.71,1.474,2.656,2.656,0,0,1-1.966.71,2.881,2.881,0,0,1-2.129-.819A3.173,3.173,0,0,1,388.479,631.2Zm2.839-2.239a1.482,1.482,0,0,0-1.092.437,1.775,1.775,0,0,0-.491.928h3.112a1.358,1.358,0,0,0-.437-.983A1.477,1.477,0,0,0,391.318,628.962Z" transform="translate(-336.826 -624.922)" fill="#1a1a1a"/>
      <path id="path5092" d="M399.658,628.208h4.8v.928l-3.713,4.313h3.986v.874h-5.3V633.4l3.713-4.314h-3.495Z" transform="translate(-340.908 -624.987)" fill="#1a1a1a"/>
      <path id="path5094" d="M417.93,634.259h-1.092v-6.115h1.092v.928a2,2,0,0,1,1.638-1.037,2.145,2.145,0,0,1,1.583.546,2.3,2.3,0,0,1,.437.6,2.2,2.2,0,0,1,1.966-1.147,1.845,1.845,0,0,1,1.365.491,1.67,1.67,0,0,1,.546,1.2v4.532h-1.092v-4.314a.741.741,0,0,0-.218-.546,1.048,1.048,0,0,0-.764-.328,1.7,1.7,0,0,0-1.256.491,1.222,1.222,0,0,0-.437.819v3.877h-1.092V630a.943.943,0,0,0-.328-.655,1.112,1.112,0,0,0-.819-.273,1.418,1.418,0,0,0-1.037.437,1.378,1.378,0,0,0-.491.928Z" transform="translate(-347.386 -624.922)" fill="#1a1a1a"/>
      <path id="path5096" d="M432.844,631.2a3.182,3.182,0,0,1,.928-2.348,2.9,2.9,0,0,1,4.04,0,3.433,3.433,0,0,1,0,4.7,2.9,2.9,0,0,1-4.04,0A3.182,3.182,0,0,1,432.844,631.2Zm2.949-2.184a1.481,1.481,0,0,0-1.092.437,2.361,2.361,0,0,0-.655,1.747,2.289,2.289,0,0,0,.6,1.693,1.584,1.584,0,0,0,2.293,0,2.289,2.289,0,0,0,.6-1.693,2.361,2.361,0,0,0-.655-1.747,1.482,1.482,0,0,0-1.092-.437Z" transform="translate(-353.346 -624.922)" fill="#1a1a1a"/>
      <path id="path5098" d="M444.675,623.163h1.092v1.42h-1.092Zm0,3.167h1.092v6.115h-1.092Z" transform="translate(-357.751 -623.108)" fill="#1a1a1a"/>
      <path id="path5100" d="M449.745,638.713H449.2l.546-1.474H449.2v-1.2h1.256v1.2Z" transform="translate(-359.435 -627.902)" fill="#1a1a1a"/>
      <path id="path5102" d="M461.6,634.259h-1.092v-6.115H461.6v.928a2,2,0,0,1,1.638-1.037,2.145,2.145,0,0,1,1.583.546,2.3,2.3,0,0,1,.437.6,2.2,2.2,0,0,1,1.966-1.147,1.845,1.845,0,0,1,1.365.491,1.67,1.67,0,0,1,.546,1.2v4.532h-1.092v-4.314a.741.741,0,0,0-.218-.546,1.047,1.047,0,0,0-.764-.328,1.7,1.7,0,0,0-1.256.491,1.222,1.222,0,0,0-.437.819v3.877h-1.092V630a.943.943,0,0,0-.328-.655,1.112,1.112,0,0,0-.819-.273,1.417,1.417,0,0,0-1.037.437,1.379,1.379,0,0,0-.491.928Z" transform="translate(-363.646 -624.922)" fill="#1a1a1a"/>
      <path id="path5104" d="M477.036,623.163h1.092v1.42h-1.092Zm0,3.167h1.092v6.115h-1.092Z" transform="translate(-369.8 -623.108)" fill="#1a1a1a"/>
      <path id="path5106" d="M481.3,631.2a3.251,3.251,0,0,1,.928-2.4,2.837,2.837,0,0,1,3.931.055,3.2,3.2,0,0,1,.764,2.348H482.5a2.308,2.308,0,0,0,.546,1.693,1.7,1.7,0,0,0,1.256.491,1.507,1.507,0,0,0,1.092-.328,1.2,1.2,0,0,0,.382-.874h1.2a2.945,2.945,0,0,1-.71,1.474,2.656,2.656,0,0,1-1.966.71,2.88,2.88,0,0,1-2.129-.819A3.173,3.173,0,0,1,481.3,631.2Zm2.839-2.239a1.482,1.482,0,0,0-1.092.437,1.775,1.775,0,0,0-.491.928h3.112a1.358,1.358,0,0,0-.437-.983A1.477,1.477,0,0,0,484.138,628.962Z" transform="translate(-371.387 -624.922)" fill="#1a1a1a"/>
      <path id="path5108" d="M492.694,628.208h1.092v4.1a1.335,1.335,0,0,0,.328.983,1.034,1.034,0,0,0,.764.273,1.726,1.726,0,0,0,1.256-.546,2.4,2.4,0,0,0,.819-1.693v-3.112h1.092v6.115h-1.092v-1.092a2.57,2.57,0,0,1-2.129,1.2,2.26,2.26,0,0,1-1.638-.491,1.7,1.7,0,0,1-.491-1.256Z" transform="translate(-375.63 -624.987)" fill="#1a1a1a"/>
      <path id="path5110" d="M503.21,628.208h1.256l1.474,2.184,1.474-2.184h1.256l-2.075,3,2.239,3.112h-1.256l-1.638-2.293-1.638,2.293h-1.256l2.239-3.112Z" transform="translate(-379.485 -624.987)" fill="#1a1a1a"/>
      <path id="path5112" d="M521.8,636.279h-1.092v-8.135H521.8v.71a2.069,2.069,0,0,1,1.693-.819,2.511,2.511,0,0,1,1.857.71,3.322,3.322,0,0,1,.874,2.457,3.4,3.4,0,0,1-.874,2.512,2.511,2.511,0,0,1-1.857.71,1.854,1.854,0,0,1-1.693-.874Zm1.693-7.262a1.571,1.571,0,0,0-1.147.491,1.787,1.787,0,0,0-.546,1.31v.764a1.881,1.881,0,0,0,.6,1.365,1.513,1.513,0,0,0,1.092.491,1.263,1.263,0,0,0,.928-.382,2.529,2.529,0,0,0,.6-1.856,2.393,2.393,0,0,0-.546-1.747A1.358,1.358,0,0,0,523.49,629.017Z" transform="translate(-386.06 -624.922)" fill="#1a1a1a"/>
      <path id="path5114" d="M531.579,631.2a3.182,3.182,0,0,1,.928-2.348,2.9,2.9,0,0,1,4.04,0,3.433,3.433,0,0,1,0,4.7,2.9,2.9,0,0,1-4.04,0A3.182,3.182,0,0,1,531.579,631.2Zm2.948-2.184a1.481,1.481,0,0,0-1.092.437,2.361,2.361,0,0,0-.655,1.747,2.288,2.288,0,0,0,.6,1.693,1.584,1.584,0,0,0,2.293,0,2.288,2.288,0,0,0,.6-1.693,2.361,2.361,0,0,0-.655-1.747A1.482,1.482,0,0,0,534.528,629.017Z" transform="translate(-390.109 -624.922)" fill="#1a1a1a"/>
      <path id="path5116" d="M543.236,628.208h1.092v4.1a1.335,1.335,0,0,0,.328.983,1.033,1.033,0,0,0,.764.273,1.726,1.726,0,0,0,1.256-.546,2.4,2.4,0,0,0,.819-1.693v-3.112h1.092v6.115H547.5v-1.092a2.57,2.57,0,0,1-2.129,1.2,2.261,2.261,0,0,1-1.638-.491,1.7,1.7,0,0,1-.491-1.256Z" transform="translate(-394.449 -624.987)" fill="#1a1a1a"/>
      <path id="path5118" d="M555.977,628.908a3.173,3.173,0,0,1,2.348-.874v1.2a2.587,2.587,0,0,0-.6-.055,2.139,2.139,0,0,0-1.529.71,3.244,3.244,0,0,0-.819,1.256v3.112h-1.092v-6.115h1.092v1.529A4.288,4.288,0,0,1,555.977,628.908Z" transform="translate(-398.563 -624.922)" fill="#1a1a1a"/>
      <path id="path5120" d="M569.073,623.076h1.092v9.337h-1.092Z" transform="translate(-404.069 -623.076)" fill="#1a1a1a"/>
      <path id="path5122" d="M573.347,629.945a2.578,2.578,0,0,1,.71-1.31,2.367,2.367,0,0,1,1.747-.6,2.7,2.7,0,0,1,1.966.6,1.726,1.726,0,0,1,.546,1.256v3.44a1.092,1.092,0,0,0,.437.928h-1.31a.976.976,0,0,1-.219-.71,2.811,2.811,0,0,1-2.075.819,2.144,2.144,0,0,1-1.583-.546,1.571,1.571,0,0,1-.491-1.147,1.7,1.7,0,0,1,.491-1.256,2.731,2.731,0,0,1,1.529-.71,7.582,7.582,0,0,0,1.147-.273,3.739,3.739,0,0,0,.983-.328,1.047,1.047,0,0,0-.327-.764,1.255,1.255,0,0,0-.928-.328,1.506,1.506,0,0,0-1.092.328,1.36,1.36,0,0,0-.328.6Zm3.877,1.2a5.023,5.023,0,0,1-.6.164q-.928.218-1.42.328a1.385,1.385,0,0,0-.655.328.835.835,0,0,0-.273.6.894.894,0,0,0,.273.655,1.058,1.058,0,0,0,.71.164,2.071,2.071,0,0,0,1.529-.6,1.913,1.913,0,0,0,.437-.546Z" transform="translate(-405.559 -624.922)" fill="#1a1a1a"/>
      <path id="path5124" d="M591.913,636.279h-1.092v-8.135h1.092v.71a2.069,2.069,0,0,1,1.693-.819,2.51,2.51,0,0,1,1.856.71,3.323,3.323,0,0,1,.874,2.457,3.4,3.4,0,0,1-.874,2.512,2.511,2.511,0,0,1-1.856.71,1.854,1.854,0,0,1-1.693-.874Zm1.693-7.262a1.571,1.571,0,0,0-1.147.491,1.787,1.787,0,0,0-.546,1.31v.764a1.881,1.881,0,0,0,.6,1.365,1.513,1.513,0,0,0,1.092.491,1.264,1.264,0,0,0,.928-.382,2.53,2.53,0,0,0,.6-1.856,2.393,2.393,0,0,0-.546-1.747,1.358,1.358,0,0,0-.983-.437Z" transform="translate(-412.167 -624.922)" fill="#1a1a1a"/>
      <path id="path5126" d="M602.216,623.076h1.092v9.337h-1.092Z" transform="translate(-416.41 -623.076)" fill="#1a1a1a"/>
      <path id="path5128" d="M606.491,629.945a2.579,2.579,0,0,1,.71-1.31,2.367,2.367,0,0,1,1.747-.6,2.7,2.7,0,0,1,1.966.6,1.726,1.726,0,0,1,.546,1.256v3.44a1.092,1.092,0,0,0,.437.928h-1.31a.975.975,0,0,1-.218-.71,2.812,2.812,0,0,1-2.075.819,2.144,2.144,0,0,1-1.583-.546,1.571,1.571,0,0,1-.491-1.147,1.7,1.7,0,0,1,.491-1.256,2.731,2.731,0,0,1,1.529-.71,7.587,7.587,0,0,0,1.147-.273,3.743,3.743,0,0,0,.983-.328,1.047,1.047,0,0,0-.328-.764,1.255,1.255,0,0,0-.928-.328,1.506,1.506,0,0,0-1.092.328,1.358,1.358,0,0,0-.328.6Zm3.877,1.2a5.031,5.031,0,0,1-.6.164q-.928.218-1.42.328a1.385,1.385,0,0,0-.655.328.835.835,0,0,0-.273.6.894.894,0,0,0,.273.655,1.057,1.057,0,0,0,.71.164,2.071,2.071,0,0,0,1.529-.6,1.917,1.917,0,0,0,.437-.546Z" transform="translate(-417.9 -624.922)" fill="#1a1a1a"/>
      <path id="path5130" d="M618.445,634.259h-1.092v-6.115h1.092v1.092a2.737,2.737,0,0,1,2.075-1.2,2.362,2.362,0,0,1,1.747.655,1.418,1.418,0,0,1,.437,1.037v4.532h-1.092v-4.2a1.111,1.111,0,0,0-.328-.819,1.255,1.255,0,0,0-.928-.328,1.573,1.573,0,0,0-1.092.546,2.452,2.452,0,0,0-.819,1.747Z" transform="translate(-422.046 -624.922)" fill="#1a1a1a"/>
      <path id="path5132" d="M631.557,626.2l-2.293-1.911H630.9l1.584,1.911Zm-3.331,3.6a3.251,3.251,0,0,1,.928-2.4,2.837,2.837,0,0,1,3.931.055,3.2,3.2,0,0,1,.764,2.348h-4.423a2.308,2.308,0,0,0,.546,1.693,1.7,1.7,0,0,0,1.256.491,1.506,1.506,0,0,0,1.092-.328,1.2,1.2,0,0,0,.382-.874h1.2a2.946,2.946,0,0,1-.71,1.474,2.657,2.657,0,0,1-1.966.71,2.881,2.881,0,0,1-2.129-.819A3.172,3.172,0,0,1,628.227,629.808Zm2.839-2.239a1.482,1.482,0,0,0-1.092.437,1.775,1.775,0,0,0-.491.928h3.112a1.357,1.357,0,0,0-.437-.983,1.477,1.477,0,0,0-1.092-.382Z" transform="translate(-426.095 -623.529)" fill="#1a1a1a"/>
      <path id="path5134" d="M639.628,624.816h1.092v2.129h1.856v.874H640.72v3.549a.834.834,0,0,0,.273.6.974.974,0,0,0,.71.218,2.489,2.489,0,0,0,1.365-.382v1.037a2.693,2.693,0,0,1-1.31.328,2.172,2.172,0,0,1-1.583-.491,1.67,1.67,0,0,1-.546-1.2v-3.658h-1.31v-.874h1.31Z" transform="translate(-429.852 -623.724)" fill="#1a1a1a"/>
      <path id="path5136" d="M647.191,631.2a3.251,3.251,0,0,1,.928-2.4,2.837,2.837,0,0,1,3.931.055,3.2,3.2,0,0,1,.764,2.348h-4.423a2.308,2.308,0,0,0,.546,1.693,1.7,1.7,0,0,0,1.256.491,1.507,1.507,0,0,0,1.092-.328,1.2,1.2,0,0,0,.382-.874h1.2a2.944,2.944,0,0,1-.71,1.474,2.656,2.656,0,0,1-1.966.71,2.881,2.881,0,0,1-2.129-.819A3.173,3.173,0,0,1,647.191,631.2Zm2.839-2.239a1.482,1.482,0,0,0-1.092.437,1.775,1.775,0,0,0-.491.928h3.112a1.358,1.358,0,0,0-.437-.983A1.477,1.477,0,0,0,650.03,628.962Z" transform="translate(-433.156 -624.922)" fill="#1a1a1a"/>
    </g>
    <g id="text5029-5" transform="translate(285.026 539.933)">
      <path id="path5049" d="M408.447,679.123h-2.932V662.7h2.932v2.493q1.906-2.786,4.4-2.786a5.758,5.758,0,0,1,4.252,1.466,6.188,6.188,0,0,1,1.173,1.613,5.916,5.916,0,0,1,5.279-3.079,4.954,4.954,0,0,1,3.666,1.32,4.484,4.484,0,0,1,1.466,3.226v12.17h-2.933V667.539a1.99,1.99,0,0,0-.586-1.466,2.814,2.814,0,0,0-2.053-.88,4.567,4.567,0,0,0-3.372,1.32,3.281,3.281,0,0,0-1.173,2.2v10.411h-2.933V667.686a2.535,2.535,0,0,0-.88-1.76,2.987,2.987,0,0,0-2.2-.733,3.806,3.806,0,0,0-2.786,1.173,3.7,3.7,0,0,0-1.32,2.493Z" transform="translate(-405.514 -653.463)"/>
      <path id="path5051" d="M448.764,667.539a6.925,6.925,0,0,1,1.906-3.519,6.356,6.356,0,0,1,4.692-1.613q3.666,0,5.279,1.613a4.636,4.636,0,0,1,1.466,3.373v9.237a2.932,2.932,0,0,0,1.173,2.493h-3.519a2.618,2.618,0,0,1-.587-1.906,7.55,7.55,0,0,1-5.572,2.2,5.759,5.759,0,0,1-4.252-1.466,4.22,4.22,0,0,1-1.32-3.079,4.567,4.567,0,0,1,1.32-3.372,7.334,7.334,0,0,1,4.106-1.906,20.419,20.419,0,0,0,3.079-.733,10.058,10.058,0,0,0,2.639-.88,2.813,2.813,0,0,0-.88-2.053,3.372,3.372,0,0,0-2.493-.88,4.046,4.046,0,0,0-2.933.88,3.648,3.648,0,0,0-.88,1.613Zm10.411,3.226a13.56,13.56,0,0,1-1.613.44q-2.493.586-3.812.88a3.718,3.718,0,0,0-1.76.88,2.242,2.242,0,0,0-.733,1.613,2.4,2.4,0,0,0,.733,1.76,2.84,2.84,0,0,0,1.906.44A5.561,5.561,0,0,0,458,675.164a5.148,5.148,0,0,0,1.173-1.466Z" transform="translate(-421.345 -653.463)"/>
      <path id="path5053" d="M480.4,684.548h-2.933V662.7H480.4v1.906a5.556,5.556,0,0,1,4.545-2.2,6.742,6.742,0,0,1,4.985,1.906,8.921,8.921,0,0,1,2.346,6.6q0,4.4-2.346,6.745a6.742,6.742,0,0,1-4.985,1.906,4.98,4.98,0,0,1-4.545-2.346Zm4.545-19.5a4.22,4.22,0,0,0-3.079,1.32,4.8,4.8,0,0,0-1.466,3.519v2.053a5.052,5.052,0,0,0,1.613,3.666,4.064,4.064,0,0,0,2.933,1.32,3.394,3.394,0,0,0,2.493-1.026,6.794,6.794,0,0,0,1.613-4.985q0-3.226-1.466-4.692A3.646,3.646,0,0,0,484.944,665.047Z" transform="translate(-432.305 -653.463)"/>
      <path id="path5055" d="M511.914,664.753a8.52,8.52,0,0,1,6.305-2.346v3.226a6.96,6.96,0,0,0-1.613-.147,5.744,5.744,0,0,0-4.106,1.906,8.716,8.716,0,0,0-2.2,3.372v8.358h-2.933V662.7H510.3v4.106A11.53,11.53,0,0,1,511.914,664.753Z" transform="translate(-443.439 -653.463)"/>
      <path id="path5057" d="M528.861,649.325h2.932v3.812h-2.932Zm0,8.5h2.932v16.422h-2.932Z" transform="translate(-451.441 -648.592)"/>
      <path id="path5059" d="M543.941,679.123h-2.932V662.7h2.932v2.493q1.906-2.786,4.4-2.786a5.758,5.758,0,0,1,4.252,1.466,6.192,6.192,0,0,1,1.173,1.613,5.916,5.916,0,0,1,5.279-3.079,4.955,4.955,0,0,1,3.666,1.32,4.485,4.485,0,0,1,1.466,3.226v12.17h-2.933V667.539a1.989,1.989,0,0,0-.587-1.466,2.813,2.813,0,0,0-2.053-.88,4.567,4.567,0,0,0-3.372,1.32,3.281,3.281,0,0,0-1.173,2.2v10.411h-2.932V667.686a2.535,2.535,0,0,0-.88-1.76,2.988,2.988,0,0,0-2.2-.733,3.806,3.806,0,0,0-2.786,1.173,3.7,3.7,0,0,0-1.32,2.493Z" transform="translate(-455.964 -653.463)"/>
      <path id="path5061" d="M584.226,670.912a8.73,8.73,0,0,1,2.493-6.452,7.618,7.618,0,0,1,10.557.147q2.053,2.053,2.053,6.3H587.452a6.2,6.2,0,0,0,1.466,4.546,4.567,4.567,0,0,0,3.372,1.32,4.045,4.045,0,0,0,2.932-.88,3.229,3.229,0,0,0,1.026-2.346h3.226a7.91,7.91,0,0,1-1.906,3.959,7.134,7.134,0,0,1-5.279,1.906,7.735,7.735,0,0,1-5.719-2.2A8.519,8.519,0,0,1,584.226,670.912Zm7.625-6.012a3.979,3.979,0,0,0-2.933,1.173,4.764,4.764,0,0,0-1.32,2.493h8.358a3.647,3.647,0,0,0-1.173-2.639A3.968,3.968,0,0,0,591.851,664.9Z" transform="translate(-472.056 -653.463)"/>
      <path id="path5063" d="M619.141,664.753a8.52,8.52,0,0,1,6.305-2.346v3.226a6.962,6.962,0,0,0-1.613-.147,5.744,5.744,0,0,0-4.105,1.906,8.716,8.716,0,0,0-2.2,3.372v8.358H614.6V662.7h2.932v4.106A11.525,11.525,0,0,1,619.141,664.753Z" transform="translate(-483.364 -653.463)" fill="#58b1ab"/>
      <path id="path5065" d="M642.251,657.494h-2.493l4.252-5.132h4.4Zm-7.331,9.677a8.73,8.73,0,0,1,2.493-6.452,7.617,7.617,0,0,1,10.557.147q2.053,2.053,2.053,6.3H638.146a6.2,6.2,0,0,0,1.466,4.546,4.567,4.567,0,0,0,3.372,1.32,4.045,4.045,0,0,0,2.933-.88,3.23,3.23,0,0,0,1.027-2.346h3.226a7.91,7.91,0,0,1-1.906,3.959,7.134,7.134,0,0,1-5.279,1.906,7.736,7.736,0,0,1-5.719-2.2A8.521,8.521,0,0,1,634.92,667.171Zm7.625-6.012a3.979,3.979,0,0,0-2.933,1.173,4.765,4.765,0,0,0-1.32,2.492h8.358a3.647,3.647,0,0,0-1.173-2.639A3.968,3.968,0,0,0,642.545,661.16Z" transform="translate(-490.932 -649.723)" fill="#58b1ab"/>
      <path id="path5067" d="M668.455,679.123h-2.932V662.7h2.932v2.933q2.639-3.226,5.572-3.226a6.341,6.341,0,0,1,4.692,1.76,3.806,3.806,0,0,1,1.173,2.786v12.17H676.96v-11.29a2.984,2.984,0,0,0-.88-2.2,3.371,3.371,0,0,0-2.493-.88,4.225,4.225,0,0,0-2.933,1.466,6.586,6.586,0,0,0-2.2,4.692Z" transform="translate(-502.326 -653.463)" fill="#58b1ab"/>
      <path id="path5069" d="M694.491,670.912a8.545,8.545,0,0,1,2.493-6.3,7.791,7.791,0,0,1,10.85,0,9.22,9.22,0,0,1,0,12.61,7.79,7.79,0,0,1-10.85,0A8.545,8.545,0,0,1,694.491,670.912Zm7.918-5.865a3.978,3.978,0,0,0-2.933,1.173,6.341,6.341,0,0,0-1.76,4.692,6.146,6.146,0,0,0,1.613,4.545,4.252,4.252,0,0,0,6.158,0,6.146,6.146,0,0,0,1.613-4.545,6.342,6.342,0,0,0-1.759-4.692,3.979,3.979,0,0,0-2.933-1.173Z" transform="translate(-513.112 -653.463)" fill="#58b1ab"/>
      <path id="path5071" d="M722.991,662.875h3.226l5.279,13.05,5.279-13.05H740l-7.038,16.716h-2.933Z" transform="translate(-523.724 -653.637)" fill="#58b1ab"/>
      <path id="path5073" d="M755.761,651.383h-1.466v-3.226h3.372v3.226l-1.906,4.4h-1.466Z" transform="translate(-535.38 -648.157)" fill="#58b1ab"/>
    </g>
  </g>
</svg>
