<svg id="MaPrimeRenov-AdobeStock_383029847" xmlns="http://www.w3.org/2000/svg" xmlns:xlink="http://www.w3.org/1999/xlink" width="186.485" height="198.523" viewBox="0 0 186.485 198.523">
  <defs>
    <linearGradient id="linear-gradient" y1="0.5" x2="1" y2="0.5" gradientUnits="objectBoundingBox">
      <stop offset="0.005" stop-color="#e0dfdf"/>
      <stop offset="1" stop-color="#fff"/>
    </linearGradient>
  </defs>
  <g id="Groupe_11" data-name="Groupe 11">
    <g id="Groupe_8" data-name="Groupe 8" transform="translate(0 71.8)">
      <g id="Groupe_5" data-name="Groupe 5" transform="translate(0 5.77)">
        <g id="Groupe_4" data-name="Groupe 4">
          <g id="Groupe_3" data-name="Groupe 3">
            <g id="Groupe_2" data-name="Groupe 2">
              <g id="Groupe_1" data-name="Groupe 1" transform="translate(0 42.148)">
                <path id="Tracé_2" data-name="Tracé 2" d="M257.4,481.857l-7.563-5.019,5.482-4.564Z" transform="translate(-149.887 -403.051)" fill="#134c4f"/>
                <path id="Tracé_3" data-name="Tracé 3" d="M281.021,440.142l-31.183,17.419,6.669-15.4Z" transform="translate(-149.887 -383.774)" fill="#308085"/>
                <path id="Tracé_4" data-name="Tracé 4" d="M428.42,299.245l8.137,5.555-12.642,48.885-7.083.665Z" transform="translate(-250.072 -299.245)" fill="#308085"/>
                <path id="Tracé_5" data-name="Tracé 5" d="M0,306.429l178.348-7.184-4.506,54.44L19.861,366.471Z" transform="translate(0 -299.245)" fill="#4ab8bd"/>
              </g>
              <path id="Tracé_6" data-name="Tracé 6" d="M232.517,302.764h0l-.1,0,0,.1.1,0,0-.1Z" transform="translate(-139.436 -259.208)" fill="#fff"/>
              <path id="Tracé_7" data-name="Tracé 7" d="M218.109,310.761h0l.009.195h0Z" transform="translate(-130.851 -264.006)" fill="#fff"/>
              <path id="Tracé_8" data-name="Tracé 8" d="M207.046,232.747l-3.205-30.981c-.5-4.788-4.509-8.295-8.966-7.834L86.326,205.162c-4.457.461-7.668,4.716-7.173,9.5l3.2,30.981c.495,4.788,4.509,8.295,8.966,7.834l76.72-7.936,10.931,12.538c1.6,1.964,3.5.9,3.261-2.062l-.953-11.845,18.591-1.924C204.329,241.79,207.541,237.535,207.046,232.747Z" transform="translate(-47.456 -193.892)" fill="url(#linear-gradient)"/>
            </g>
          </g>
        </g>
      </g>
      <g id="Groupe_7" data-name="Groupe 7" transform="translate(8)">
        <g id="Groupe_6" data-name="Groupe 6">
          <path id="Tracé_9" data-name="Tracé 9" d="M38.114,211.194c-2.916-1.4-5.985-2.517-8.984-3.724-2.61-1.047-5.434-2.7-8.264-2.841a.764.764,0,0,0-.6,1.335c2.059,1.941,5.184,2.832,7.745,3.987,2.944,1.327,5.877,2.761,8.9,3.9a1.457,1.457,0,0,0,1.2-2.654" transform="translate(-19.998 -194.563)" fill="#4ab8bd"/>
          <path id="Tracé_10" data-name="Tracé 10" d="M411.476,179.5c-2.013.492-3.65,2.394-5.233,3.675-1.936,1.566-3.882,3.138-5.747,4.789-.668.592.124,1.863.913,1.335,1.924-1.281,3.8-2.647,5.667-4.005,1.7-1.241,4.329-2.535,5.347-4.4a.922.922,0,0,0-.948-1.393" transform="translate(-248.122 -179.471)" fill="#4ab8bd"/>
          <path id="Tracé_11" data-name="Tracé 11" d="M430.712,220.11a1.031,1.031,0,0,1,.4,1.93,13.932,13.932,0,0,1-4.173,1.23c-1.513.374-3.029.773-4.566,1.1-1.211.251-1.505-1.449-.394-1.825,1.489-.517,3.006-.94,4.5-1.4a14.231,14.231,0,0,1,4.231-1.035" transform="translate(-260.745 -203.851)" fill="#4ab8bd"/>
          <path id="Tracé_12" data-name="Tracé 12" d="M46.834,260.43c.923-.071,1.762,1.2.843,1.846-1.506,1.054-3.352,1.4-5.089,1.977-1.731.562-3.45,1.151-5.2,1.675-1.055.315-1.531-1.425-.547-1.828,1.7-.731,3.451-1.38,5.18-2.047a18.18,18.18,0,0,1,4.812-1.624" transform="translate(-29.781 -228.039)" fill="#4ab8bd"/>
        </g>
      </g>
    </g>
    <g id="Groupe_10" data-name="Groupe 10" transform="translate(56.257)">
      <path id="Tracé_13" data-name="Tracé 13" d="M276.237,2.685,275.423,0c-.488.244-2.278,1.3-5.451,3.092A43.517,43.517,0,0,0,261.428,9.6c-7.242,7.16-8.788,15.053-4.638,23.434a44.614,44.614,0,0,0,6.754,9.927,163.228,163.228,0,0,0,3.174-17.494c.813-6.916,2.358-11.8,4.556-14.728-1.627,4.394-2.442,7.486-2.522,9.439-.082,1.872-.245,4.476-.326,7.73a70.555,70.555,0,0,1-.651,8.788c-.407,2.685-.9,5.126-1.3,7.568l.57-.245a22.79,22.79,0,0,0,10.091-6.916c5.94-6.592,6.835-15.054,2.928-25.387C278.434,8.218,277.133,5.126,276.237,2.685Z" transform="translate(-208.954)" fill="#94be3a"/>
      <path id="Tracé_14" data-name="Tracé 14" d="M297.129,97.975c3.418-.488,5.7-.975,6.672-1.627a20.792,20.792,0,0,0,3.255-2.2c-.488,1.627-2.522,2.93-6.183,4.069-4.476,1.383-8.708,2.685-12.613,3.987a25.824,25.824,0,0,0,7,3.092c5.777,1.709,10.5-.081,14.159-5.289a26.744,26.744,0,0,0,3.092-6.1c.731-2.115,1.139-3.336,1.3-3.742l-1.79-.244a51.453,51.453,0,0,1-6.1-1.383c-7-1.384-12.206.08-15.7,4.476a15.164,15.164,0,0,0-3.092,7.078l-.08.325A49.428,49.428,0,0,1,297.129,97.975Z" transform="translate(-228.463 -52.815)" fill="#8abb36"/>
      <path id="Tracé_15" data-name="Tracé 15" d="M180.562,62.524a4.666,4.666,0,0,0-3.335-1.3,4.426,4.426,0,0,0-3.337,1.383l-30.514,31a9,9,0,0,0-2.684,4.557c-.407,2.2.894,3.255,4.149,3.174h5.534l.162,33.117,49.961-.325a5.018,5.018,0,0,0,3.255-1.465,4.482,4.482,0,0,0,1.3-3.255l-.162-28.561,5.371-.082c2.521-.081,3.661-1.139,3.5-3.254a6.937,6.937,0,0,0-2.2-4.558Z" transform="translate(-140.619 -36.729)" fill="#4ab8bd"/>
      <g id="Groupe_9" data-name="Groupe 9" transform="translate(18.554 50.322)">
        <path id="Tracé_16" data-name="Tracé 16" d="M213.228,134.4c-2.773.4-4.392-2.541-8.332-1.969-3.892.565-5.519,3.384-6.233,7.014l10.02-1.455c1.41-.206,2.738-.3,2.992,1.453s-.927,2.171-2.435,2.39l-10.7,1.553a9.348,9.348,0,0,0,.072,1.181l.226,1.557,8.658-1.257c1.41-.205,2.738-.3,2.992,1.453s-.927,2.171-2.435,2.39l-8.171,1.185c1.587,3.743,4.129,6.205,8.458,5.576,3.5-.508,5.128-3.675,7.706-4.049a2.99,2.99,0,0,1,3.337,2.793c.685,4.718-7.074,7.036-10.625,7.552-8.415,1.221-14.069-2.825-16.658-10.743l-1.119.162c-1.363.2-2.7.194-2.95-1.509-.3-2.043,1.614-2.221,3.122-2.44l-.2-1.362a12.773,12.773,0,0,1-.149-1.368l-.876.126c-1.362.2-2.655.187-2.9-1.516-.339-2.336,2.15-2.3,3.755-2.532.642-7.891,5.1-13.455,13.124-14.62,3.454-.5,11.441-.22,12.1,4.3A3.49,3.49,0,0,1,213.228,134.4Z" transform="translate(-186.998 -125.785)" fill="#fff"/>
      </g>
    </g>
  </g>
  <g id="Groupe_12" data-name="Groupe 12" transform="translate(25.143 101.331)">
    <path id="Tracé_17" data-name="Tracé 17" d="M118.788,290.728q.038.347-.287.382l-3.965.436q-.325.035-.368-.357-.124-1.131-.289-3.4t-.288-3.4q-.036-.325-.139-.336a32.171,32.171,0,0,0-1.121,3.626q-.588,2.084-1.177,4.154a.474.474,0,0,1-.247.333,4.259,4.259,0,0,1-.446.06q-.583.064-.719-.147-.741-1.166-1.984-3.411-1.325-2.37-1.975-3.422a.337.337,0,0,0-.114-.112.535.535,0,0,0-.042.334q.121,1.1.417,3.287t.417,3.287q.044.392-.27.427l-3.742.411c-.149.016-.243,0-.282-.043a.464.464,0,0,1-.079-.246q-.133-1.221-.285-3.681t-.285-3.682q-.142-1.3-.647-4.861-.113-.929-.4-2.756l-.032-.19c-.024-.148.124-.241.446-.276q.616-.067,1.843-.242t1.845-.242q.123-.014.4.432l4.059,6.822q.427.69.662.664.124-.013.434-.9.873-2.476,2.572-7.459.142-.458.366-.482.325-.036.984-.074t1-.076q.28-.031.851-.15t.851-.15q.335-.037.365.232.146,1.322.339,3.959t.338,3.959q.135,1.221.5,3.652T118.788,290.728Z" transform="translate(-85.396 -266.481)" fill="#94be3a"/>
    <path id="Tracé_18" data-name="Tracé 18" d="M160.4,289.605q.095.863.382,2.555t.381,2.543c.033.3-.08.474-.339.525q-1.378.254-3.17.45-.214.023-.356-.613t-.246-.637a1.039,1.039,0,0,0-.214.216,3.776,3.776,0,0,1-2.55,1.562,4.534,4.534,0,0,1-3.807-1.329,5.826,5.826,0,0,1-1.779-3.7,6.085,6.085,0,0,1,.943-4.321,5.1,5.1,0,0,1,3.809-2.074,3.436,3.436,0,0,1,2.914.927c.034.034.062.05.085.047.067-.007.123-.2.17-.568s.129-.564.249-.577a10.027,10.027,0,0,1,1.6.062,16.033,16.033,0,0,1,1.633.207c.117.032.179.086.187.16a2.046,2.046,0,0,1-.008.239A24.791,24.791,0,0,0,160.4,289.605Zm-3.6.463a2.191,2.191,0,0,0-.773-1.508,2.289,2.289,0,0,0-3.12.337,2.335,2.335,0,0,0,.378,3.133,2.053,2.053,0,0,0,1.6.482,2.1,2.1,0,0,0,1.489-.793A2.194,2.194,0,0,0,156.8,290.069Z" transform="translate(-114.324 -272.069)" fill="#94be3a"/>
    <path id="Tracé_19" data-name="Tracé 19" d="M204.545,266.255a8.831,8.831,0,0,1-1.259,6.084,7.045,7.045,0,0,1-5.36,3q-.6.066-1.813.131t-1.814.13c-.429.047-.624.256-.584.625q.076.689.36,2.039t.358,2.024c.025.23-.068.356-.276.379q-.916.1-2.749.249t-2.749.248a.387.387,0,0,1-.482-.387q-.183-1.663-.5-5t-.5-5.005q-.516-4.706-1.491-9.848l-.038-.208q-.061-.281.412-.393,1.152-.279,5.139-.717,2.355-.258,4.519-.434a8.24,8.24,0,0,1,5.97,1.6A7.733,7.733,0,0,1,204.545,266.255Zm-5.954.9q-.383-3.493-3.786-3.119-2.4.263-2.488.547a24.288,24.288,0,0,0,.275,3.474q.051.464.188,1.367t.188,1.367q.032.3,2.73,0Q198.951,270.434,198.59,267.151Z" transform="translate(-136.521 -256.793)" fill="#94be3a"/>
    <path id="Tracé_20" data-name="Tracé 20" d="M247.3,275.231q.063.585-.58.655c-.191.021-.469.039-.837.054s-.642.032-.821.052a2.7,2.7,0,0,0-1.651.576,2.079,2.079,0,0,0-.277,1.623q.071.645.238,1.954t.236,1.953q.048.435.2,1.29t.2,1.275q.04.36-.45.459-.713.137-2.2.3a22.832,22.832,0,0,1-2.288.161q-.5-.006-.548-.441-.132-1.2-.378-3.591t-.379-3.592a21.933,21.933,0,0,0-1.281-5.729,1.1,1.1,0,0,1-.056-.222.3.3,0,0,1,.192-.324q.814-.181,2.377-.595,2.317-.726,2.392-.733c.18-.02.33.282.448.907s.244.929.374.915q-.21.023,1.143-.922a5.813,5.813,0,0,1,2.686-1.092q.839-.092.879.268a11.6,11.6,0,0,1,.045,1.239q0,.864.031,1.24.047.435.141,1.153Q247.265,274.947,247.3,275.231Z" transform="translate(-166.985 -263.401)" fill="#94be3a"/>
    <path id="Tracé_21" data-name="Tracé 21" d="M272.361,266.773q.119,1.094.4,3.255t.4,3.241c.024.209-.088.348-.334.415a17.458,17.458,0,0,1-2.283.342,17.673,17.673,0,0,1-2.318.163q-.337-.023-.426-.15a1.711,1.711,0,0,1-.079-.446q-.113-1.034-.3-3.115t-.3-3.13a54.849,54.849,0,0,0-1.075-6.739c-.037-.157-.058-.261-.064-.311q-.032-.3.372-.344.419-.046,1.292-.05t1.306-.053q.436-.047,1.3-.218t1.3-.218c.24-.026.371.06.392.26a2.69,2.69,0,0,1,0,.288A61.5,61.5,0,0,0,272.361,266.773Zm-.833-11.179q.286,2.607-2.651,2.93a3.254,3.254,0,0,1-2.156-.431,2.516,2.516,0,0,1-.395-3.87,3.184,3.184,0,0,1,1.978-.915,3.093,3.093,0,0,1,2.1.482A2.364,2.364,0,0,1,271.528,255.595Z" transform="translate(-184.48 -253.287)" fill="#94be3a"/>
    <path id="Tracé_22" data-name="Tracé 22" d="M313.042,274.644c.038.35-.091.561-.386.635s-1.033.174-2.212.3a16.382,16.382,0,0,1-2.288.16c-.306-.026-.483-.256-.53-.685q-.076-.689-.181-2.066t-.181-2.066q-.288-2.623-.47-3.726-.285-1.774-1.889-1.6a2.178,2.178,0,0,0-1.337.746,2.006,2.006,0,0,0-.628,1.4q.011.635.344,3.693.079.7.28,2.13t.282,2.146q.053.494-.38.542l-4.542.5c-.28.03-.442-.158-.487-.569q-.077-.7-.188-2.118t-.188-2.133q-.061-.556-.214-1.676t-.216-1.69q-.236-2.144-1.87-1.964a2.623,2.623,0,0,0-1.367.666,1.517,1.517,0,0,0-.712,1.261q.15,1.364.462,4.076t.461,4.061a.742.742,0,0,1-.039.474.848.848,0,0,1-.451.171q-.668.133-2.122.292-.945.1-2.154.146a.787.787,0,0,1-.438-.058.862.862,0,0,1-.116-.442q-.131-1.2-.38-3.591t-.378-3.591a48.221,48.221,0,0,0-.967-5.492,1.769,1.769,0,0,1-.059-.266.343.343,0,0,1,.172-.368,5.169,5.169,0,0,1,1.22-.361q1.113-.228,1.319-.282.146-.046,1.15-.444a4.56,4.56,0,0,1,1.159-.34q.285-.032.415,1.009c.087.693.165,1.037.234,1.029a1.535,1.535,0,0,0,.322-.248,14.267,14.267,0,0,1,1.97-1.673,5.725,5.725,0,0,1,2.442-.829,4.913,4.913,0,0,1,2.526.344,3.212,3.212,0,0,1,1.786,1.761,6.343,6.343,0,0,1,1.99-2.054,5.838,5.838,0,0,1,2.632-1.032,5.339,5.339,0,0,1,3.323.56,3.466,3.466,0,0,1,1.733,2.8q.088.795.217,2.4t.217,2.4q.1.945.357,2.835T313.042,274.644Z" transform="translate(-197.622 -257.779)" fill="#94be3a"/>
    <path id="Tracé_23" data-name="Tracé 23" d="M369.166,262.373q.165,1.513-.785,1.83-.162.047-3.067.67-1.748.389-5.224,1.044a2.132,2.132,0,0,0,1.437,1.344,4.514,4.514,0,0,0,2.024.2,5.693,5.693,0,0,0,2.6-1.013l1.06-.845a4.491,4.491,0,0,1,1.225,1.413,5.673,5.673,0,0,1,.935,1.672.706.706,0,0,1-.187.37q-1.613,2.164-5.465,2.587a8.053,8.053,0,0,1-5.985-1.452,7.431,7.431,0,0,1-2.868-5.4,8.108,8.108,0,0,1,1.388-5.872,7.1,7.1,0,0,1,5.235-2.88,6.551,6.551,0,0,1,5.117,1.562A7.016,7.016,0,0,1,369.166,262.373Zm-5.347-.338a2.324,2.324,0,0,0-.839-1.561,2.1,2.1,0,0,0-1.651-.532,1.9,1.9,0,0,0-1.471.966,2.736,2.736,0,0,0-.381,1.786.367.367,0,0,0,.465.359,26.664,26.664,0,0,0,3.409-.724Q363.838,262.2,363.819,262.035Z" transform="translate(-238.001 -254.911)" fill="#94be3a"/>
    <path id="Tracé_24" data-name="Tracé 24" d="M93.052,397.117c.008.1-.143.178-.451.245q-.88.2-4.464.491-3.07.252-4.18.219a2.7,2.7,0,0,1-.594-.055.928.928,0,0,1-.362-.385q-.418-.775-1.227-2.305-1.083-1.986-3.357-5.843a2.151,2.151,0,0,0-2.017-.726q.706-.015-2.409.24-.351.028-.266,1.079.115,1.4.636,4.159T75,398.393q.029.35-.177.429l-.653.1q-1.375.2-4.3.436a35.408,35.408,0,0,1-4.04.208q-.689-.068-.732-.583-.186-2.266-.316-6.86t-.317-6.881q-.716-8.715-1.561-13.561l-.047-.287c-.035-.232.2-.41.7-.534s2.88-.4,7.136-.835q4.327-.438,6.9-.65a16.193,16.193,0,0,1,8.889,1.407,7.694,7.694,0,0,1,4.386,6.589,10.022,10.022,0,0,1-.59,4.881,10.382,10.382,0,0,1-3.345,3.78q-.511.375-.488.663,0-.02,3.283,4.937T93.052,397.117ZM81.7,379.444a3.582,3.582,0,0,0-2.16-3.328,10.518,10.518,0,0,0-4.606-.368q-2.226.183-2.317.792a31.6,31.6,0,0,0,.191,4.05q.038.474.138,1.4t.137,1.379q.008.1.767.144a23.382,23.382,0,0,0,3.013-.06Q81.989,383.029,81.7,379.444Z" transform="translate(-62.847 -322.879)" fill="#fff"/>
    <path id="Tracé_25" data-name="Tracé 25" d="M162.284,378.286q.17,2.081-1.328,2.494-.255.062-4.812.852-2.742.495-8.194,1.316a3.063,3.063,0,0,0,2.159,1.876,7.873,7.873,0,0,0,3.139.324,9.843,9.843,0,0,0,4.113-1.333l1.7-1.135q.509.165,1.824,1.965a7.253,7.253,0,0,1,1.357,2.315q.011.144-.312.5-2.637,2.933-8.657,3.427a13.59,13.59,0,0,1-9.231-2.125,9.6,9.6,0,0,1-4.152-7.478,10.355,10.355,0,0,1,2.5-8.025,11.839,11.839,0,0,1,8.317-3.835,10.911,10.911,0,0,1,7.874,2.258A9.044,9.044,0,0,1,162.284,378.286Zm-16.948-9.643a.378.378,0,0,1-.48-.4,4.312,4.312,0,0,1,0-.519,4.6,4.6,0,0,0,0-.54,5.37,5.37,0,0,0-.145-.756,5.514,5.514,0,0,1-.144-.755q-.023-.289.454-.494a46.258,46.258,0,0,0,4.284-2.405q1.354-1.024,4.112-3.055a1.7,1.7,0,0,1,.45-.244,1.274,1.274,0,0,1,.416.174q.579.45,1.825,1.26.684.276,2.008.893.394.2.409.381.013.164-.292.459a21.8,21.8,0,0,1-5.918,3.753,23.7,23.7,0,0,1-6.775,2.226Zm8.645,9.059a3,3,0,0,0-1.215-2.16,3.48,3.48,0,0,0-2.54-.767,3.114,3.114,0,0,0-2.346,1.292,3.475,3.475,0,0,0-.7,2.442q.044.557.7.5a46.68,46.68,0,0,0,5.349-.917Q154,377.93,153.982,377.7Z" transform="translate(-109.04 -316.995)" fill="#fff"/>
    <path id="Tracé_26" data-name="Tracé 26" d="M224.685,398.814q.046.557-.6.693t-3.414.363a30.574,30.574,0,0,1-3.665.177.773.773,0,0,1-.772-.787q-.08-.969-.17-2.931t-.172-2.952q-.063-.763-.234-2.273t-.234-2.273q-.232-2.822-3.019-2.593a4.444,4.444,0,0,0-2.074.875q-1.248.89-1.185,1.653l.914,11.126a.711.711,0,0,1-.664.822q-.813.149-3.343.357a31.189,31.189,0,0,1-3.571.169q-.735-.043-.782-.62-.132-1.607-.375-4.843t-.375-4.864a28.2,28.2,0,0,0-1.575-7.98,1.266,1.266,0,0,1-.072-.305.458.458,0,0,1,.314-.482q1.464-.266,3.9-.776,3.673-.943,4.141-.983.259-.022.513,1.358t.511,1.359q-.257.02,2.4-1.639a10.961,10.961,0,0,1,4.743-1.831,9.29,9.29,0,0,1,5.068.828,4.472,4.472,0,0,1,2.55,3.773l.54,6.573q.11,1.34.352,4.006T224.685,398.814Z" transform="translate(-144.708 -329.058)" fill="#fff"/>
    <path id="Tracé_27" data-name="Tracé 27" d="M291.389,384.019a9.781,9.781,0,0,1-2.642,7.892,14.032,14.032,0,0,1-17.061,1.443,9.4,9.4,0,0,1-3.937-7.144,10.163,10.163,0,0,1,2.549-8.018q2.942-3.238,8.377-3.686a12.468,12.468,0,0,1,8.814,2.212A9.691,9.691,0,0,1,291.389,384.019Zm-7.684.631a4.13,4.13,0,0,0-1.384-2.78,3.871,3.871,0,0,0-3.078-1,4.113,4.113,0,0,0-3.831,4.464,4.048,4.048,0,0,0,1.359,2.771,4.256,4.256,0,0,0,6.067-.5A4.093,4.093,0,0,0,283.7,384.65Z" transform="translate(-185.747 -325.973)" fill="#fff"/>
    <path id="Tracé_28" data-name="Tracé 28" d="M353.889,374.935a17.749,17.749,0,0,1,.084,4.182,24.027,24.027,0,0,1-2.826,5.231,55.616,55.616,0,0,1-3.62,5.026q-.557.688-3.626.941a22.21,22.21,0,0,1-3.48.12,1.669,1.669,0,0,1-.854-.344,47.651,47.651,0,0,1-4.388-4.327,27.512,27.512,0,0,1-3.728-4.61,11.817,11.817,0,0,1-.935-4.217q-.067-.8-.175-2.423t-.177-2.443q-.044-.536.775-.6,1.2-.1,3.6-.234t3.6-.234q.539-.044.592.594.047.577.048,1.748t.051,1.769q.177,2.142.429,3.491a7.945,7.945,0,0,0,1.575,2.526q1.5,1.93,2.112,1.88.585-.048,1.71-2.153a8.366,8.366,0,0,0,1.125-2.664,28.466,28.466,0,0,0-.1-3.559,17.033,17.033,0,0,0-.289-1.792,17.357,17.357,0,0,1-.287-1.771q-.053-.638.44-.679.562-.046,1.676-.117t1.677-.117q.562-.046,1.692-.222t1.691-.222a.749.749,0,0,1,.817.472A18.16,18.16,0,0,1,353.889,374.935Z" transform="translate(-223.219 -323.134)" fill="#fff"/>
    <path id="Tracé_29" data-name="Tracé 29" d="M401.959,347.8a19.18,19.18,0,0,1-1.1,7.578.639.639,0,0,1-.5.456,10.854,10.854,0,0,1-1.516.208,11.331,11.331,0,0,1-1.366.029q-1.017-.04-2.119-3.683a23.7,23.7,0,0,1-1.013-4.584l-.208-2.534c-.025-.316.053-.509.236-.579a22.189,22.189,0,0,1,3.34-.4,23.239,23.239,0,0,1,3.524-.165Q401.668,344.259,401.959,347.8Z" transform="translate(-261.595 -307.771)" fill="#fff"/>
  </g>
</svg>
