<svg id="purse" xmlns="http://www.w3.org/2000/svg" width="79.331" height="64.287" viewBox="0 0 79.331 64.287">
  <g id="Groupe_107" data-name="Groupe 107" transform="translate(0 0)">
    <g id="Groupe_106" data-name="Groupe 106">
      <path id="Tracé_184" data-name="Tracé 184" d="M75.845,55.343H74.683V40.861c0-3.7-3.3-6.711-7.36-6.711H35.409L13.877,28.54l-.019,0-.019-.005-.039-.007-.06-.011-.054-.006-.063-.005h-.116l-.048,0-.066.007-.044.007-.067.013-.041.01-.067.019-.037.013-.067.025-.034.016c-.022.01-.043.02-.064.032l-.032.018c-.021.012-.041.024-.061.037l-.031.021c-.019.013-.038.027-.056.042l-.03.025c-.017.015-.034.029-.05.045l-.029.03c-.015.015-.029.031-.043.047l-.029.036c-.012.016-.024.032-.035.048s-.018.028-.027.043-.02.032-.028.048-.016.032-.024.048-.015.032-.022.048-.013.035-.02.053-.009.022-.013.034,0,.011,0,.017,0,.011-.006.017L11.1,34.149H7.361c-4.05,0-7.346,3-7.359,6.689,0,.008,0,.015,0,.022V77.6a1.116,1.116,0,0,0,1.162,1.06A1.115,1.115,0,0,0,2.324,77.6V45.748a7.725,7.725,0,0,0,5.036,1.824H67.328a4.834,4.834,0,0,1,5.032,4.592v7.418H59.572c-.034,0-.067,0-.1,0s-.074.008-.11.014l-.016,0c-.03.006-.06.013-.09.02l-.02,0c-.026.007-.052.016-.077.025l-.029.01c-.021.008-.042.018-.063.027l-.041.018-.047.025-.051.029-.033.022c-.02.013-.04.026-.059.04l-.024.02c-.02.016-.041.032-.06.05s-.022.022-.032.032-.031.029-.045.045-.046.054-.068.083v0l-6.2,8.478a1.014,1.014,0,0,0-.109.187c-.011.024-.02.049-.029.074,0,.007-.006.015-.009.022-.009.026-.015.053-.022.079,0,.007,0,.014-.005.021-.005.024-.009.048-.012.071s0,.02,0,.031,0,.039,0,.059,0,.03,0,.045,0,.029,0,.044,0,.04,0,.06,0,.02,0,.029.007.049.012.073c0,.007,0,.013.005.02.006.027.013.053.022.08l.009.022c.009.025.018.049.029.074a1.028,1.028,0,0,0,.109.187l6.2,8.476h0a1.11,1.11,0,0,0,.081.1l.029.029q.03.029.061.057l.038.031c.023.018.046.034.07.05l.032.022a1.185,1.185,0,0,0,.108.06l.029.013c.03.014.06.026.091.037l.036.012q.044.014.09.026l.038.009c.031.007.063.012.1.016l.035,0q.06.006.122.007H72.36v7.419a4.835,4.835,0,0,1-5.036,4.592H7.361a4.835,4.835,0,0,1-5.036-4.592c0-.006,0-.011,0-.016V81.835a1.116,1.116,0,0,0-1.162-1.06A1.117,1.117,0,0,0,0,81.835v4.24c0,.011,0,.022,0,.033.019,3.686,3.313,6.679,7.359,6.679H67.324c4.058,0,7.359-3.01,7.36-6.71h0V78.656h1.161a3.347,3.347,0,0,0,3.486-3.178V58.522A3.347,3.347,0,0,0,75.845,55.343ZM14.394,30.878l20.5,5.343h0L48.645,39.8h-36.7Zm57.965,16.4a7.725,7.725,0,0,0-5.035-1.824H7.361a4.835,4.835,0,0,1-5.036-4.592,4.835,4.835,0,0,1,5.036-4.592h3.161L9.553,39.8H7.361a1.064,1.064,0,1,0,0,2.119H65.773a1.064,1.064,0,1,0,0-2.119H57.1L43.543,36.269H67.323a4.835,4.835,0,0,1,5.036,4.592Zm4.647,28.2h0a1.115,1.115,0,0,1-1.161,1.059H60.2L54.774,69.12,60.2,61.7H75.845l.048,0a3.775,3.775,0,0,0,1.113-.181Zm-1.161-15.9H74.683V57.463h1.161a1.064,1.064,0,1,1,0,2.118Z" transform="translate(0 -28.499)"/>
    </g>
  </g>
  <g id="Groupe_109" data-name="Groupe 109" transform="translate(70.887 40.037)">
    <g id="Groupe_108" data-name="Groupe 108">
      <path id="Tracé_185" data-name="Tracé 185" d="M390.5,288.493a3.5,3.5,0,1,0,3.5,3.5A3.508,3.508,0,0,0,390.5,288.493Zm0,5.1A1.593,1.593,0,1,1,392.1,292,1.594,1.594,0,0,1,390.5,293.59Z" transform="translate(-386.999 -288.493)"/>
    </g>
  </g>
</svg>
